<?xml version="1.0" encoding="utf-8"?>
<!-- Generator: Adobe Illustrator 22.1.0, SVG Export Plug-In . SVG Version: 6.00 Build 0)  -->
<svg version="1.0" id="Layer_1" xmlns="http://www.w3.org/2000/svg" xmlns:xlink="http://www.w3.org/1999/xlink" x="0px" y="0px"
	 viewBox="0 0 192.2 43.8" style="enable-background:new 0 0 192.2 43.8;" xml:space="preserve">
<g>
	<path d="M0.1,43.5v-41h25v5h-18v12h14v6h-14v18H0.1z"/>
	<path d="M29.1,31.8V15.5h6v15.6c0,2.2,0.5,4,1.6,5.2c1.1,1.2,2.5,1.8,4.2,1.8c2,0,3.7-0.6,5.1-1.8c1.4-1.2,2.1-3.1,2.1-5.7V15.5h6
		v28h-6v-4.1c-0.8,1.5-1.9,2.7-3.5,3.5c-1.6,0.8-3.2,1.2-4.8,1.2c-3.4,0-6-1.1-7.9-3.2C30,38.8,29.1,35.7,29.1,31.8z"/>
	<path d="M63.1,43.5v-28h6v4.2c0.8-1.5,1.9-2.7,3.5-3.6c1.6-0.8,3.2-1.3,4.9-1.3c3.3,0,5.9,1.1,7.8,3.2c1.8,2.1,2.8,5.2,2.8,9.1
		v16.3h-6V27.9c0-2.2-0.5-3.9-1.6-5.1c-1-1.2-2.5-1.8-4.3-1.8c-2,0-3.7,0.6-5.1,1.8c-1.4,1.2-2.1,3.1-2.1,5.7v15H63.1z"/>
	<path d="M96.5,6.7C95.7,6,95.3,5,95.3,3.9c0-1.1,0.4-2,1.2-2.8c0.8-0.8,1.8-1.1,3-1.1c1.1,0,2.1,0.4,2.9,1.1
		c0.8,0.8,1.2,1.7,1.2,2.8s-0.4,2-1.2,2.8c-0.8,0.7-1.7,1.1-2.9,1.1C98.3,7.8,97.4,7.5,96.5,6.7z M96.1,43.5v-28h6v28H96.1z"/>
	<path d="M108.1,20.5v-5h5v-11h6v11h6v5h-6v23h-6v-23H108.1z"/>
	<path d="M129,29.2c0-4.3,1.4-7.8,4.1-10.5c2.8-2.7,6.2-4,10.3-4c2,0,3.8,0.3,5.6,1c1.7,0.7,3.2,1.7,4.5,2.9
		c1.3,1.2,2.2,2.8,2.9,4.6c0.7,1.8,1.1,3.8,1.1,6c0,1.1,0,1.9-0.1,2.3h-22.3c0.3,2.1,1.2,3.8,2.8,5.1s3.5,1.9,5.8,1.9
		c1.6,0,3.1-0.4,4.5-1.1c1.4-0.7,2.4-1.7,3.1-2.9c0.6,0.3,1.4,0.7,2.6,1.2s2,0.9,2.4,1.1c-1.2,2.4-2.9,4.2-5.3,5.4s-4.9,1.8-7.7,1.8
		c-2.7,0-5.1-0.6-7.2-1.8s-3.9-2.9-5.2-5.2S129,32.1,129,29.2z M135.1,26.5h16.3c-0.3-2.2-1.2-3.9-2.6-5.1c-1.4-1.2-3.2-1.8-5.4-1.8
		c-2.2,0-4,0.6-5.6,1.9C136.3,22.7,135.4,24.4,135.1,26.5z"/>
	<path d="M164.1,43.5v-28h6v6.4c1.3-4.7,3.8-7,7.5-7c0.9,0,1.9,0.1,2.8,0.3c0.9,0.2,1.6,0.5,2,0.8l-1,5.7c-1.2-0.6-2.6-1-4-1
		c-2.5,0-4.3,1.1-5.5,3.4c-1.2,2.3-1.8,5.4-1.8,9.3v10.1H164.1z"/>
	<path d="M185.2,42.8c-0.8-0.7-1.2-1.7-1.2-2.8s0.4-2,1.2-2.8c0.8-0.8,1.8-1.1,2.9-1.1c1.2,0,2.1,0.4,3,1.1c0.8,0.8,1.2,1.7,1.2,2.8
		s-0.4,2-1.2,2.8c-0.8,0.7-1.8,1.1-3,1.1C186.9,43.9,186,43.5,185.2,42.8z"/>
</g>
</svg>
